<svg width="55" height="16" viewBox="0 0 55 16" fill="none" xmlns="http://www.w3.org/2000/svg">
<path d="M0.66 15V0.999999H9.97V3.46H3.25V6.54H7.55V9H3.25V15H0.66ZM12.1444 15V1.69L14.6444 0.559999V15H12.1444ZM22.0747 15.24C21.0947 15.24 20.248 15.02 19.5347 14.58C18.828 14.14 18.2814 13.52 17.8947 12.72C17.5147 11.9133 17.3247 10.9667 17.3247 9.88C17.3247 8.78 17.518 7.83 17.9047 7.03C18.298 6.23 18.848 5.61667 19.5547 5.19C20.268 4.75667 21.108 4.54 22.0747 4.54C22.9014 4.54 23.6514 4.71333 24.3247 5.06C24.998 5.40667 25.5347 5.94 25.9347 6.66C26.3347 7.37333 26.5347 8.28333 26.5347 9.39C26.5347 9.56333 26.528 9.77667 26.5147 10.03C26.508 10.2767 26.4914 10.5267 26.4647 10.78H19.7947C19.8214 11.2467 19.928 11.6567 20.1147 12.01C20.308 12.3567 20.5714 12.6267 20.9047 12.82C21.238 13.0133 21.6314 13.11 22.0847 13.11C22.5714 13.11 22.9947 13.03 23.3547 12.87C23.7147 12.7033 24.0547 12.44 24.3747 12.08L25.8147 13.57C25.3747 14.07 24.8447 14.4733 24.2247 14.78C23.6047 15.0867 22.888 15.24 22.0747 15.24ZM19.8047 8.83H24.1147C24.0814 8.38333 23.9814 8 23.8147 7.68C23.648 7.35333 23.4147 7.10333 23.1147 6.93C22.8147 6.75667 22.4514 6.67 22.0247 6.67C21.438 6.67 20.938 6.85 20.5247 7.21C20.1114 7.57 19.8714 8.11 19.8047 8.83ZM49.8363 15.24C48.3963 15.24 47.2596 14.7633 46.4263 13.81C45.5929 12.8567 45.1763 11.5533 45.1763 9.9C45.1763 8.80667 45.3663 7.86 45.7463 7.06C46.1263 6.25333 46.6629 5.63333 47.3563 5.2C48.0563 4.76 48.8829 4.54 49.8363 4.54C50.7829 4.54 51.6029 4.75667 52.2963 5.19C52.9896 5.62333 53.5229 6.24 53.8963 7.04C54.2696 7.84 54.4563 8.79 54.4563 9.89C54.4563 10.9967 54.2696 11.95 53.8963 12.75C53.5296 13.55 52.9996 14.1667 52.3063 14.6C51.6129 15.0267 50.7896 15.24 49.8363 15.24ZM49.8363 12.85C50.5096 12.85 51.0329 12.59 51.4063 12.07C51.7796 11.55 51.9663 10.8233 51.9663 9.89C51.9663 8.95667 51.7763 8.23 51.3963 7.71C51.0229 7.18333 50.5029 6.92 49.8363 6.92C49.1629 6.92 48.6363 7.18333 48.2563 7.71C47.8763 8.23667 47.6863 8.96667 47.6863 9.9C47.6863 10.82 47.8763 11.5433 48.2563 12.07C48.6363 12.59 49.1629 12.85 49.8363 12.85Z" fill="#1E1E22"/>
<path d="M27.5492 15L31.2692 9.7L27.7992 4.78H30.6792L32.0892 6.8C32.2026 6.96 32.3159 7.12667 32.4292 7.3C32.5492 7.47333 32.6426 7.63 32.7092 7.77C32.7892 7.63 32.8826 7.47333 32.9892 7.3C33.1026 7.12 33.2126 6.95333 33.3192 6.8L34.7492 4.78H37.6392L34.1592 9.7L37.8892 15H34.9992L33.3092 12.62C33.2026 12.4667 33.0959 12.3033 32.9892 12.13C32.8826 11.95 32.7892 11.79 32.7092 11.65C32.6426 11.79 32.5492 11.95 32.4292 12.13C32.3092 12.3033 32.1959 12.4633 32.0892 12.61L30.4292 15H27.5492ZM40.0722 15V4.78H42.5722V15H40.0722ZM41.3222 3.5C40.9222 3.5 40.5755 3.35667 40.2822 3.07C39.9955 2.77667 39.8522 2.43 39.8522 2.03C39.8522 1.63 39.9955 1.29 40.2822 1.01C40.5689 0.723333 40.9155 0.58 41.3222 0.58C41.7422 0.58 42.0922 0.719999 42.3722 0.999999C42.6522 1.28 42.7922 1.62333 42.7922 2.03C42.7922 2.43667 42.6489 2.78333 42.3622 3.07C42.0822 3.35667 41.7355 3.5 41.3222 3.5Z" fill="#7C4DFF"/>
</svg>
